/* XPM */
static char *space_aeration1689774698[] = {
/* columns rows colors chars-per-pixel */
"128 128 45 1 ",
"  c #272727",
". c #282828",
"X c #2A2A2A",
"o c gray17",
"O c #2C2C2C",
"+ c gray18",
"@ c #2F2F2F",
"# c gray19",
"$ c #323232",
"% c gray20",
"& c #343434",
"* c gray21",
"= c gray22",
"- c #393939",
"; c #3A3A3A",
": c gray23",
"> c #3C3C3C",
", c #3F3F3F",
"< c gray25",
"1 c gray26",
"2 c #434343",
"3 c #454546",
"4 c #484747",
"5 c #474847",
"6 c #484847",
"7 c #474748",
"8 c #484748",
"9 c #474848",
"0 c #4A4A49",
"q c #49494A",
"w c #4B4B4A",
"e c #4C4B4B",
"r c #4B4C4C",
"t c #4C4C4D",
"y c #4E4E4F",
"u c #504F4F",
"i c #4F504F",
"p c #50504F",
"a c #4F4F50",
"s c #504F50",
"d c #4F5050",
"f c #525251",
"g c #535353",
"h c gray33",
"j c #555555",
/* pixels */
"oooooooooooooooooooooooooooooooooooooooooooooooooo.oooooooooooooooooooooooooooooooooooooooooOooooooooooooooooooooooooooooooooooo",
"oooooooooooooooOoooooooooooooooooooooooooooo.oooooooooooooooooooooooooooooooooooooooooooooooOOoooooooooooOooooooooooOOoooooooooo",
"ooooOO$=====*=================*=====*ooooooooooooooooooooooooooooooooooooooooooooooooooooo=============================>%Ooooooo",
"ooooo$>>=============================oo=*********=*=**=*********************************oo=============================>,*oooooo",
"ooOO$<><:============================oo****=***=**==************************************oo============================>,,,=Ooooo",
"ooo$>><>,:===========================ooooooooooooooooooooooooooooooOoooOoooooooooooooooOoo===========================>,,>>,>oooo",
"oo$>><><>,qgfgfgfgfggggfdgdgafgffftffoOOooooooooooooooo.OOoOooOOoooOoOOOooooOOooooOOooOOoOppptftftfttptttsqatwtfqftut6>,,,<>>#oo",
"oo>><><>>tffgfffgfgssfsggagagfgapfhffffppffuftfgtfaagftfftfaftftaftftftfafftftftpuptpppputtptftftftpfpqfpppatfupptwfaat,,>>>>>oo",
"oo=>,,,,qfgfft33263236233333333333273233373737777733383q33fttfafthtfppw3333338<7333q3223373333723q32663636636336663wfwfw,,><>=OO",
"oo==>,>qfggf7<><,,,>,<,>,,<><<,,,,,,<,<>,<,,,,,,<<<<<<<<><2hfffahthpp6,,<><>,,><<>><,,,><<>>,,,,><,,,,,<<<<<,,,<<<,3tsttw2>>==oo",
"OO===>7hfgf7<3:===*====*=*=***====**===*=**===*=====*==*=>,6ftfathpp3,,>=****===*=**=====***==***==============*==,,qpqptt<===oo",
"OO====ffgf2,2:ooOOOO.O.ooooooooo ooooooooooooooooooOooooO*2<qfafpth2<3>oOooooOOO.oooOO.OoOoooooooooo.oo.ooOO.oooOO*,,qfwwfa===oo",
"Oo====ffa2<7>oooO.OoOooO.OOOoooooooooooooo oo ooooooooooOO$,,tftpp,,<>OooOOOoo oOooOoooOoooooooo.oo.ooOoooOoooOoOoo$,<tttqw===oo",
"oo====fft,<=ooOo%==%*=%****=%***==%*%*******===%***=***#ooo*<<pphq<<>oOOo%==*****=%*%**=*******$***=*%*=*%***%*=#ooo=,<fwft===oo",
"oo====fft<>oooo%,,,,,>,>>>>><>=>,:,:>>:,,>:>,>,>>>>>>>,=oooo><fphw<>ooOO#>,,<>=<>,,>>>><>>=>,,,:>,>,>,,>>>,,>>,,*oooO>,qftp===oo",
"oo====fft>:oooo>62222222233<3<332222272272222222<332<32<oooo=<qptt<>oooO,q2223<3222223<333<322222222222222222222,oooO=<6fwq===oo",
"oo====fgw>>ooo*ghhhfhphfhphthhthffhfffffffgagfgghfhfhfhh=.oo=<qtpw,>ooo*gggggffhphphphufffhffffgggpghphphphphpggg=Ooo=,qtwd===oo",
"oo====guw>>oooqghpffhhphfhffhffhfhfhthhhggggggagsffffffh< oo=<qfpw>>ooO3gggfffhhhfhhhgphfhfhahggpphgphphphhhpgpgh2ooo=,wwut===oo",
"oo====ffw<>O %fhhhhhhhhhhhfhfhhfhhhhhhfhggggggggfhhhhhhhfOoo><qppq,>o.$ghhgghhhhghhhhhhhhhhhgggghhgghhhhhhjjhjgghpOoo=,qpwf===oo",
"oo====ufq<*oo$>>><>>>>>>,,,,<,,,<>>><,<>,:,,,,,:,,,,>,>>=$oO=,qpuq,>oo$>>,,,>,>>,>>,,,,><>>>,,,,,,,,,,,>>,>,>>,>>>OoO=,6wtw===oo",
"oo====fft,>Ooo  OOo o o   o o o  o  o  ooo o   oo o  o  Oooo=<wtpw,>ooo...o.......... o  o  o  o. o O.O.O..O.o..OOooo=,qawt===oo",
"oo====ffq,>oooooOOoOoooooooooo ooOoooooO oooooooooooOOooOOoo=<whpq,=ooooOOo.ooOOoooooooooooooooOoo.oOOX.OO.X.OoooOooo=,qtdw===oo",
"oo====ffq,=oooo$$***$***$**$**$***$*$$**%*%%%%*%$*$%****oooo=<qttq,>oooo#%%*%%%%$%%*%%$%**$*$$***%%%%%%%%=%%%*%%$OOoo=>qwww===oo",
"oo====ffw,>oooo>>>>>>>>><><<=><>><>,>>>>,>,,,,:,,,>,><=>O.oo=<qppq,=oooo>,>,,>,,,,,,>,,,><><>>>>>,,,,>,,>>,>,,>,>Oooo=,qwaw===oo",
"oo====ffq,>ooo$333333333<q272723333333333333333323333333=ooo*>qppq,>oo.%q32632622323<733333333334<333333333233263=ooO=,qwaf===oo",
"oo====gsw<>Oo.3hfgfgfgfhfhggggggfhfhfhfhhffhghfhggggfgfh4ooo=<qppq>>oo.<gggggggghhhhhfhffhhfghfhhhggggffhhggggggh6.oo=,wtqw===oo",
"oo*===afq<=ooopffgfhfgfhfgggghgfhffffffhffffffffgggghffhfo.o=>tpgq<>ooOpggffgggghfffhhfhgfffffffhfhgfgfghppggggghpOOo=,6wqt===oo",
"oo====afq>>o.=fhhghhhghfhgggghgghhhhhhhhhhhhhhhhggggghhhf=.o=<wptw>>OO=hghhgggggfhfhhfhhghhhhhhgfhfhghhghhhggggghg%oo=,qwfw===oo",
"oo====gaq<>Oo$<,3>73<33<22222<23<3<<3<3<3<3<<32<3<323<23<*o =<qtpq<>oo%,2322322233<3<3<332,33<<33>323<23223222222,$Oo=>qqqt===oo",
"oo====ffq<>OooOoooooooooooooooooooOOooooooooooooo oooooooooo><qppq>>ooo .o...oo. ooooOooooooooooOooOoooo.oo.o.ooOoooo=<qtfw===oo",
"oo====agq<=oooooOOo OoooooooooooOOooooOOOOooOOOOooOOOooooooo=,qupq,>oooooooooooooooooOoooooooOoOooOooooooooOooooooooO>,qwwq===oo",
"oo====faq>>oooO=>==========:===*=======================*oooo>,qfuq,>ooo =>=>===>*>==*==================*>======>=OooO=,qqfq===oo",
"oo*===fft,:oooo,,,,,,,:,,,:,:,,,:,,,>,,>,,,,>,,><><,>,,,@ooo=,wtaq,:o oo:,,,,:,,,,,:,:,,,,,:,:,,><,>,,>,:,,,:,,,,$ooo=<7tqw===oo",
"oo====ff7,=ooo*q72222222222222222222222222222222<3<32222=ooo><qpat,:ooo*t77222222222222222222222<3222222222222222= oO><tqaq===oo",
"oo====fft,:ooo3hgggggagggfggfggfgaagggggfggaggggdffghffgtooo=<qttq,:ooo2gggggfgaagfggfgaagfggfgaffgfgfgffggggggagtooO=:qwaq===oo",
"oooooosaq,:oooafggggfggfaggaggagggfgagfggafgfagfgfghffgga$oo>>qaaq,:oooagfggagggfgggagggfgggagggfgfgagfgggaggafggf$oO=,qqwoooooo",
"ooooooaft,:oo=fgfggghgggggggghgggggggggghggfggggggghgggfg=oo=,qaaw,>o *gggggggggggggfggggggggggghggggghhfggggggggg= o:,qqtoooooo",
"ooooooafq,:ooo****=============================:=========@ o:,qtqq,>oo@%======:====:==:====:=*============:=:=====$oo:,qwwoooooo",
"ooo=*otaq,:oooo o  oo   oo  o    o  oo  o o o o    oo o  ooo:,tapq,>ooo   o o  oo o o o o o  o oo    ooo oo o     o o:,qwwo**ooo",
"ooo=*offq,=oooo@***%==*==%=%==*==***=%=%==%=$=%=******=*oooo=,qatw,=oooo$=**%=%=%=%=%=$=$=%==%====*=$=%*%=%=%=*=*ooo :,7qso**ooo",
"ooo**oipq,>oooo=,>,,>,:,,>,,,,>,,,,:,>,,:,,,:,,:,>,,>,,>Oooo=,wwfq,>Oooo=,,,,::,,,:,,:,,,,>,,>,:=<<>,:,,,:,,:,,,>oooo=,wqwo**ooo",
"ooo**ofhq,=ooo$22222222222222222222222222222222222222223*ooo><wttq,=ooo#2222222222222222222222223<<32222222222223*ooo>,6awo**ooo",
"ooo**ohtq,>ooo=hgggggagggfgafggfagfggfgagggagggggfffgfgh,Ooo=<qpwt,>oo.>gggggaggafgggffggaggggafgfhhgfggaggafggfh2ooo>,qqwo**ooo",
"ooo**otfw<>ooOthagfhfggfagfggaggfgggaggggafgfagffhfffgigwooO:,wff3,>ooo6ggfhgggfggagaggafgfggfggffffgagggfggggaggwooo=,qwwo**ooo",
"ooo**ofaq<>Oo$fhggghhggggghhgghgggggggggggggggggghhhhhhhg$.o=<wwwq,>oo$fggghgggghggggghhgghghhghgggggggggggggggghh$oo=,4wwo**ooo",
"ooo**Otfq>>OoO>>,:,,<,,:,,,,,:<,,,,,,>,,,,,,,,,,,,,,,,,,,$oo>,6tuq,=oo#>,>,,,,,><,,>,,,,,:<,,,,=,,,>,,,:,,,,,,,,,,Ooo>,qwqo**ooo",
"ooo**Ofpq<=Ooooo    o o   o o     o  o  o     o     .  . ooo=,qft6,>oooo o  o  oo     o     o  o  ooo o   o o o .oooo=<qeqo**ooo",
"ooo**Otfw,=ooooo$@o$$OO$o$$OO$O$o$@@@@o$@@$@o$@@@@@@@@#Ooooo=,qwwq,=ooooo@o$@@o$@@@$o$@@$@o$@@@$$@oO@@@@$@o@@@o@#oooo=,qqqo**ooo",
"ooo**otfw,>OooO=,>,,,,,,><<><<,,,,,>,,>,><<><<,,,>,>,,>,#oo.=,qtpq,>oooo=>,>,,>,><<><<,,,,,,,,,,>,,,,<,>>,,,,<,>>$ooo=,6wwo**ooo",
"ooo**ofaq,>Ooo$<2,,,,,,,<<<<<<<<2,2,,22,<<<<<<<<2<2,,2,2%ooo=,6utq>>oooO2,,,,1,1<<<<<<<<,<<,<,,<<2,<<<<<<2,<<<<<,*ooo=,qwqo**ooo",
"ooo**otgw<=oo.>hfffhpphhfffffafaaafafaaffffffafafafaaafg3ooo=,6wwq,>ooO,hpphhphpfffffafaaagfffffgaafffffgadfffffh2.oo=,wqwo**ooo",
"ooo**Oftq>>oooqhffhpfhphffffhfgggggfgfggffffhfgggfggggggto.o>,qtp6,>ooOqhhhphphhffffhfggggfggfffggfgfgffggfgfgffgtooo=,6wqo**ooo",
"ooo**oiiw,>Oo*hhhhhfhfhhhhhhhhhfhhgggggghhhhghhfhhhfgghhg%O.=,qptq,>O.%hhhhhhhhhhhhhhfhfggfhghfgggghfhhfggghfhhggg*o.=,qqwo**ooo",
"ooo**ouuq,>O =qqaqattttawtaqaqttt7aatttaqtaqaqaaaqattttaq*oo=,6qwq,>o.=qwtwtwwttqtaqattttattttaqttttt7tattttaqqawt%oo=,qwqo**ooo",
"ooo**opiq,*ooooooooooooooooooooooooooooooooooooooooooooooooo>,qfpq,>ooooOO.OOOOOooooooooooooOooooooOoooooooOooooOoooo=,6qwo**ooo",
"ooo**oftq<>ooooooo oo oo  oooooooo oo ooo oo o o o oo oooooo>,qwt6,>ooooOO..oO.O oo ooooooo ooo ooooo ooooooo ooOoooo:,qwqo**ooo",
"ooo**optq<>oooo$*****************=**=**=*=**=***********Oooo>,qttq<=oooo$*==*************************************OooO>,qqwo**ooo",
"ooo**otfq<>oooo>><><,,>,><,>,,>,:,,:<<::,:,:,,:,>,,>,,>,$ooo=,6wwq<>oooo>,<,>,,>,,>,,>,<><>,>,>,,=,,>,,>,,>,,>,<,OooO=,6wqo**ooo",
"ooo**Oftw<>ooo$33<<<,,,,,,,,,,,,,:,,><,,<:<<,,,,<=,,,,,,*ooo><wwa5<>ooo$33,,,>,,><,,,,,><,><<,,,,><,<>,,>,,,,=<>,*ooo=,qq6O**ooo",
"ooo**Otfq>=ooo,gfffhaafafaafaafaffafaafaffafaafaffffaaff3ooo=<qtqq>=ooO<hfhpfuphfaaffaafaffaafaffafafaaffuppffhfg6ooo>,6qqo=*ooo",
"ooo**oftw<>ooofffffhhfhgfghggghgfghggghgfghggghgfhhggghgt$oo=>qwtq<>o.otfhfhfhhhggggghhhghgghhgggghhgggghhhhghhhgf#oo=,6qqo**ooo",
"ooo**otfw<=oo*hhhhhhfhhghghghghghhhghghghghghghghhhghghgh*oo=<qqwq<>oo*fhhhhhhhfhhhhghhhghhghhhhhhhhhhhhjhhhhhhhgh*oO:,q66o**ooo",
"ooo**optw<>ooo=><><><><><><><><><,,,<<<<<><><><><><><><,<Ooo><qqwq,>o.$>,<,,<,<<,<<><<><<><<><<><<><,,<<,,,,,,,,,>@oO=,6qqo**ooo",
"ooo**otfq<>OooOOO OoOoOoOoooOoooooo O o OoooOoooOoooOoo oooo=<qat6,>oooo o .O..O oO oo oO oOo Oo Oo o oo..O..O..o.ooO=,6w6o**ooo",
"ooo**otfq,:oooOO$%%%$$$%$%%%$$$%$%$%$%$$$$$$$$$$$$$$$$$$oooo=,qtwq<>ooooO$$$$$$$$$$$$$$$$$$$$$$$$@$$$$$$$$$$$$$$$OooO=,6qqo**ooo",
"ooo**osdq,:oooO=>,>>><>>>,>>><>>:,:>:,::>,>>>,>:><>>>>>,Oooo>,qwwq<>oooo=><>>>>>,>>>>>,>>>>>,>:,,>,>>>>>,>>>>>,>>OooO><qq6O**ooo",
"ooo**ofte,>oooo,,<><<<><,<><<<><,,,,,,,,<,><,,,,<<><<<><$Ooo=,qwwq,=ooo$>><><:<<,,<><,,,<><<,,,,,,,,<><<,,,,<,,,<$ooO=>6qqO**ooo",
"ooo**otpq,=ooo:gphthtftfththtftffafaafffaffaafffafftfffh>ooO>,qwtq<>oo =hfffffffaaffffaaffaffaafafaaffafaafaffaag:ooO=<q6qO**ooo",
"ooo**otpq<>ooo3gfffffffhhphhfffhfggfffffffhfffffffhffffhqOoo=,qpqq<=OOo3hffhfgfgfhfffffffffffgfffhfffggffhfgffffhqooo=,q6qo**ooo",
"ooo**Opwq<>oOOffhhhhhfhhhhhfhfhhgggghghhghgghfhhfhghhfhhp#oo>,qww6<>oO#phhhhggggfhhhhhhfgghggghfhhhhggggfhhhhhhhhfOoo>>3q6o**ooo",
"ooo**Ofwq<=oo$3333qq3q63336q3q3q77t727q373q73q3q73q73q665#oo=<qtwq,=oo$36733q2q966q3t33qq373q373q73373q737q2q73773$oo>,qq6o**ooo",
"ooo**Otaw>>ooooooo o ooooo.O OOOo ooooo oooo OOooooo oo.oooo=,qwi6,>ooo.ooo oooo..o OOoOooooooooooo ooooo ooooooooooo=,q66o**ooo",
"ooo**ottq,>ooooooOOOooOOOOOOOOOOoooOOOOOOOOOOOOOoooOOOOOoooo=>6wtq,:ooooooOOOOOOOOOOOOOOoooOOOOOoOOOOOOOOOOOOOOOooooO=>666o**ooo",
"ooo**ofwq,>oooo=>>>>>>>>>>>>>>>>::>>>>>>::>>>>::>=>>>>>>Oooo=,qqqq,:oooo*>>>>>>>>>>>>>>>>>>>>>>>=>>>>>>>>>>>>:>>=OooO=,q6qo**ooo",
"ooo*=optq<:oooo>,><>,,,,><<>,><>,:,>,,,,:,,,,:,,<:<<,<,,$Ooo=,qpqq,:oooo>><>><<<><<>,><>,,><<,:<<><,><,,,,><>,<>,%ooO=,q66O**ooo",
"ooo**Owsq,:ooo=ftfaatatftaaaataaaaaaatafataaaaaaaaatataf, o.=,qwwq<=ooo=ftaafatataaaataatfaataftaatataaaataataaah,ooO=>6q6O=*ooo",
"ooo**otaq,:ooothgghfhfhfgggghfhfgggfggggggggggggggghfgggwOOo=,qtwq>>ooo7hggfgggggggggggghhfhhfhffggggggggghfhggghtOOO=,6q6o**ooo",
"ooo**ofwq,:oo$ffggghhhghggggfhffggghgggggggggggfggghggggf$oo=,qwaq>>oo$fhgghgggggggggggghfgghhfhgghhggggggfhggggff$OO=,q66o**ooo",
"ooo*=Otaq,=o =tffgfffffffhfffhfffgfffffffggagffffffffffff*oo=,qwwq,>oo=afffffffffggffgfgfffffffpffffffgfffffffffhp$OO=>66qo**ooo",
"ooo**Owtt<>ooo$$$$$$$$$$$$$$$$$$$$$$$$$$$$$%$%$$$*$$$$$$$ooO>,qwtq>>ooO@@*$$$$$$$$$$$$$$$$$$$$$$$$$$$$$$$$$$*$%$%#ooO=,6q3o**ooo",
"ooo**otww,=oooooOO oo.O.Oo oo.ooo o o .o..o oo..o..o..o.oooo=,6wqq,>OoooO..o..O..OO.Oo..O..O..O..oOOoO.O o oo ooOo.OO=,66qo**ooo",
"ooo**owfq,>ooooO$%$O$O#$O$$O#$O$@$@$$$####$$O$##$$####$$oooo>,qwqq>>Oooo#*$####%$O#%O$###%#####$O$O$O$O$@$@$$$O$OOOoO><qq3o**ooo",
"ooo**oqfq,>oooo><<<,>,,,>,>>,,>,,,:><<<>>><<<<>>,>,>><>,Oooo=,qwwq,>oooo><<,>,,,>>,,,,>>,>,>>,>,>>,>>>><>,<,=>,>,#o.O=>666O**ooo",
"ooo**Opw4,>ooo$<<<<>>>>>>>>>>,>>>>,>>>>>>>>>>>>>,>>>>>>,%ooo>,qqq6,>ooo#<<<>>>>>>>>>>>>>,>>>>>>,<><>>>>>>>>><>>:>%oOO=<q6qo**ooo",
"ooo**oftq,>ooo=gftaqqtaqpttwwfaqatqaqawttwtqtwtwwaqtwtqa2Ooo=>qwwq>>oo.,hppttwtwtwtwpwaqwtwttwtwtwtwtwwtaqwattwap2ooo*,q6qo**ooo",
"ooo**owtq,>ooowgfhfhhhfhhhfhgffhgfggffhhhhhhhhhhfhhhhhhhpOoo=<6wwq,>o.oqfhfhhhhhhhhhhfhhfhhhhhhhhhhhhhhhfgfhgghgfpooO=>663o**ooo",
"ooo**oqqq,:oo$ghhhhhhhghhhhhghhhghhhhhhhhhhhhhhhhhhhhhggf$Oo>,qqq6,>O.$ghhhhhhhhhhhhhhfhhhhhhhhhhhhhhhhhhhhgfhhghh*oO>>qq3o**ooo",
"ooo**otfq,=o.*6qwqwqwqqqqqqwqqqwqqtqqqqwqwqwqwqqqwqwqqqqq*oo=<qwwq,>o.%6qwqwqqqqqqwqwqwqqwqwqqqqqwqqwqwqwqwqqqtqqq*oo=<q66o**ooo",
"ooo*=ofwq,=oooooOOoooooooooooOOOoooooOOOOoOoooooOOoooooooooo>,6qw6,>ooooooooooooOoooooooooooooooOOOOooooOoooooooooooO>>666o**ooo",
"ooo*=Oqt6,>oooooOOOOOOO$OOO$OOOOOOO$OOOOOo$OooOoOOOOOO$Ooooo=,qwqq,>ooo.ooooO$oOOOOoo$ooOOOoo$oOOOOOOOOOOOOOOOO$ooooO=,q35o**ooo",
"ooo**owpw,>ooo.=<>>>>>>>>>>>>>>>>>>>>>>>>>>>>>>>><>>>>>>oooo>,qqwq,>oooO=>,>>>>>>>>>>>>>>>>>>><>>>>>>>>>><>>>>>>=OOoO=<qq6o**ooo",
"oooooowpq,>oooo>><>:><<><>><><>:<>><><>>>,,,,,,>><>>><<>#oOO=,qwq6>>oooO>,,,<><>,,><,><>,,,,,>,>><,,,,<>><>:><<>>$OOO=>636oooooo",
"ooooOOtwq,=oo.=tataaaataaaqaaataaaqttftaqaqapwatatwaftup>.oo>,qqq6,>oo.=wptfqttttftwawatatqawtaqtaqattwfaataatqaf>ooO=<63qoooooo",
"oo====ws6,>oo.2hgffffffffhfffffffhfhhfffhfhghfhhgffhfffh6ooo=,qqqq,:oo.2hffhfhhhhfhhfhggghgghhfhffhghhhffffffhhfh6ooO><q636===oo",
"oo====twq,>oOOphfhggfffhgghffhghfhhffhhfhffffhfhfhhffhphpOoo>,6w6q,>o.OtfhfhhhhhgfhhhfhggggghfhhhhfffhggfhffhfhhfaOoO=>3636===oo",
"oo====wwq,>oo%wpftaaaaftftafftftfatfftapppftfatfftaftappp$.o=,6qq6,>oo%uppftptptftptppftftftpppttpftfatfftfftftpat$oO=<q663===oo",
"oo====wwq,>oooo##O#OO#OO#OO#OO#OO$OOO$OOOO$OO$OOO$O$OO#OOOoo>>6qq6<=oooOOo%OOo%OOOO$OOO$o@o$OO@oO$$o$oo$O$OOO$OOOOOOO=,6363===OO",
"oo====wtq,>ooooo.ooooooooooOooooOOooooooOoooOOooooOOoooooooo=,6qqq<>oooooooOoooOOooOOooOoooOooooooOOooooOOooooooOoOOO>,q366===oO",
"oo====ws6,=ooooo#OoO#OOOOO#O#OOOOOOOoOO$$OOOOOO$oOOOOOOOoooo>,qq66,>ooooOOOOOOOOOOOOOOOOooOOoOO$oOOOO$ooOOOOoOO$OOooO=,6q63===oo",
"oo====twq,>oooo=,>,,>>,>>>>>>>,>><>>>>>>>>>>,>>>>>>><>>>oooo=,6qqq>>oooo=<,<>>>>>>><>>>>>,,>>,::>>>>>>>=><>>>>>>>OooO=,q366===oo",
"oo====wwq,>ooOO<,,>,>>>>>>>>>>>>>>>>>>>:>>>>>>=>>>>=>>>,*Ooo=,6666,>oooO<:,,::>:<>>>=>>>>:>>:>>:>>>=>>>>:>>>::::<$ooo=<q3q6===oo",
"oo====qfq<>OoO=twwq66q66q3q6q66q77q9q777qq77qq3qq3tqqq6q>Ooo>,qqq6<=ooo=aaqq77t7q36qq7t6t72t77t76qqqqq6q77t3q7t7q>ooo==q636===oo",
"oo====waq<>ooo6hggggggggggggggggggggggggffhgfgggfhhfhhhhtOoO=,6qqq<>oooqhghgggggggfhgggggggggggghhggghfhggggfggghaOoo=,q343===oo",
"oo====tqw,=ooOpggggggggggggggggggggggggghffhggggggfhffhfp$oO>,6q6q,>ooofhggggggggggggggggggggggghfgggfhfgggggggghf*oo=<q346===oo",
"oo====qwq<>o.*tpaafffufffffffffffaffagafagaffafffffffafff*oo>,6qqq,>O.%pfaaffafaffffafffffaffaaffffffftffffffagaff%oO>>6q33===oo",
"oo====tqq<>oooO$o@$O$##@##$OO$##@$@###@$#@@$@$@O$O%O$O$OoOoo=,6qq6,>ooOOOO$@$@@$O$$O$O$@@$@@@$@%$O##$o$@$O$@@@@$#OOoO=<q464===oo",
"oo====wwq<>oooooooo ooooooo.o.oooooooo oooooooooooOooooOoooo>,3q66,>ooOooooooo ooooooooo ooooo oooooooooooooooooooooo=,6333===oo",
"oo===*aqq<=ooooOoooooooOooooooooo ooooooooo oooooooooooooooo=,qqqq,>ooooo ooooooOooooooooooooooooooooooo o oo ooooooo>>q436===oo",
"oo====wst,>oooO%=>>=:::=>=::=:::::::::::=:::::::==::::==oooo=<3q6q<>oooo*::::=:::=::==:=::::::::==>=>>>:::::::::*Oooo>,6663===oo",
"oo====wqw,=oooO,q333333333333333722332727333323333333333oooo=,q96q,>oooo2772333733373333722333323333333337723272,$ooo=,66<4===oo",
"oo====wqq,>ooo#ffhggggggggggggfgggggggggggfggggghhggfhhh=oo :,7q6q<>ooo#ggggfhgghfggfhhggggggggghhfffhffggggggggh=ooo>,6336===oo",
"oo====wtw,>Ooo=gfffffgfgfffgfgfffgfgfgfgfgffgfgffffffffg<Ooo:,q76w>=ooo=gfgffffgfffhfffffgfgffgfffhfffhfgfgfgfgfh, oO=,6263===oo",
"oo====uww<=Oo.2ghfgffffgfgaggaggffffgffgifgiffffgfffffffqOoo=<66qt<=ooo<hhfffgfgffffffgfggfgffffgfaffgffffffffffhqooO=,6333===Oo",
"oO====qqw,>.ooqhfgfgffgfgfgffggffffgfggggghffffffgffffffpOoo=>6q6w<>oOoqgfffgfgfffffhfffaggaffffaggfgfffgfffffffgiOoO=,6633===oo",
"oo====wtw,,#oo#%%%*%$%%$%%%%&%&&%%%%%%$%*%*$$$$$%*$$*$%*$OoO><q66q<<OOo$%$$$%%%%%**%*$%$*%*$$$$$&&%**%$$*%$$*$%*$$OoO>,6333===oo",
"oo====qww3<,ooOOo o  oo o o   o .o. oo .   oooo    ooO..ooO><3q6663<=oooOoo....o.. . oo    oooo ..  o o o o oo. oooO><2w366===oo",
"oo====wwwq22>O.Oooooooooooooo ooOoooOOoOo oooooooooooooOoO<<<tqqq6622=oooooOOooooo OoOOOoooooooooooooooo  ooOo.ooo$><363636===oo",
"oo===>wqqwq22>%%*$***$**$***$==%%*%*%%%%*****$**%*$$**$$$=<3q666q6q3<3**$***%%*%**%*%*%**$**%$***%$***$*%=%%**%*$$><3663362===oo",
"oo==>,2wwqw6,,,,>,,>>><,:,>,,,,,,,,,,,,,>><::<,<,,,,,<>3<<3qq6q336q632,,>,>,<>,,,,,,>,><>,,,><>,,,,,<,,,<,,,,,<<>2<2663336,>==oo",
"oo=>,>,2qwqqt636773777q39333737733663656q3q7933qq77tawwqfqq6666qq666qwq6q3q3333436336333q33373q3333733337777quwwaqq633363,<>>=oo",
"oo>>>>,,3wqwqwwqqqqwqwqqqq6w66qqqq66qq66q5q6q66q7q7q3qq3q3q66q5566765566366433q363q366363646q35677333643<666332636266336,,,,>=oo",
"ooO><,,>>6wqwqqqqwqqwqqwqqqqqqw66qqq6OooooooooooooooooOOoooooooooooooooooOooOOooooooooooOO3334337333q335633326633363236,>,>,>Ooo",
"ooo#>,,>,>30qwqwqww66q6wqqq5qqq66qq6qOoooooooooooooooooooooooooooooooooooooooooooooooooooo64366634343336633663636263633,,,,>oooo",
"oooo$>,,,============================Oo=*=**********************************************oo============================>>,>>Ooooo",
"ooooO%>,=============================oo*************************************************oo============================>>>>#ooooo",
"ooooOo%>=============================ooooooooooooooooooooooooooooooooooooooooooooooooooooo==============================>#oooooo",
"ooooooOOooooooooooOOooooooooooooooooooooooooooooooooooooooooooooooooooooooooooooooooooooooooooooooooooooooooooooooOooooooooooooo",
"oooooooooooooooooooooooooooooooooooooooooooooooooooooooooooooooooooooooooooooooooooooooooooooooooooooooooooooooooooooooooooooooo"
};
