/* XPM */
static char *space_plain1689774698[] = {
/* columns rows colors chars-per-pixel */
"128 128 43 1 ",
"  c gray17",
". c #2C2C2C",
"X c gray19",
"o c #323232",
"O c #343434",
"+ c gray21",
"@ c gray22",
"# c #393939",
"$ c #3A3A3A",
"% c gray23",
"& c #3C3C3C",
"* c gray24",
"= c #3E3F3E",
"- c #3F3F3F",
"; c gray25",
": c #434343",
"> c #444444",
", c gray28",
"< c #484747",
"1 c #474847",
"2 c #484847",
"3 c #474748",
"4 c #484748",
"5 c #474848",
"6 c #484849",
"7 c #4A4949",
"8 c #4A4A49",
"9 c #4B4B4A",
"0 c #4A4A4B",
"q c #4C4B4B",
"w c #4B4C4B",
"e c #4C4B4C",
"r c #4B4C4C",
"t c #4C4D4C",
"y c gray31",
"u c #504F4F",
"i c #4F504F",
"p c #50504F",
"a c #4F4F50",
"s c #504F50",
"d c #4F5050",
"f c #525251",
"g c gray32",
/* pixels */
"                                                                                                                    ..          ",
"                     .                                                          ..     .                ..          ..          ",
"    ..o@@@@@@@@@@@@@@@@@@@@@@@@@@@@@@                   ..      ..  ..      ..  .... ...  @@@@@@@@@@@@@@@@@@@@@@@@@@@@@&O       ",
"     o&&@@@@@@@@@@@@@@@@@@@@@@@@@@@@@  @@O@OO@O@@O@OO@O@O@O@O@O@OO@OO@O@O@O@OO@OO@OOOOO@  @@@@@@@@@@@@@@@@@@@@@@@@@@@@@&&@      ",
"  ..o;&;%@@@@@@@@@@@@@@@@@@@@@@@@@@@@  @O@@O@O@OO@O@@O@OO@OO@OOO@OOO@OOO@OOO@O@OOO@OO@OO  @@@@@@@@@@@@@@@@@@@@@@@@@@@@&;;&@.    ",
"   o&&;&;&@@@@@@@@@@@@@@@@@@@@@@@@@@@                     ..... ..  ..  ...   ..  ... .   @@@@@@@@@o@@@@@O@@@@@o@@@O@&;&&;&&..  ",
"  o&&;&;;&0gggggfgggggggdgggsfffgfafa                       .                             yyyyyyffyy6yyyyyyfyyyyyyyyy6&&;&;&&.  ",
"  &&;&;&&0fgggggfggggfagggaggffasfgfafgaasffasggsffaagddsyfayfdyfaaffaafyfsayyfdpuyyddyyyyyyyyyyyyyyfyyyu6y6yyyyyyqyyyy&&;&;&@  ",
"  @&;&;;6f;:fgggggggdggsggfdgggafaggfagffggaaffdgsgdfadaffyayaffyffayfyfasfyyyyayyyyyyyyyyyyyyyyyyyyyyttyyyyy6yyyas;&ff6;;&;&@..",
"  @@&;&6f;oo:ggggfgggggfgafgfdfggafafgafaaffffddfadgfusfyayffayaaayyasaayfauyfyyyyyyyyyyyyyyyyyyyy6yytyyyqy6yyyyyf&oo@yyy,&&@@  ",
"..@@@&6f;oo@O:ggdggdgagfggaaafaggfafaagggfdgafffafsfsfufayaffyayfyaffysiaaapayyyyyyyyyyyyyyyyyyyyyfyyyyyyyyyyqyyy&oO@o&fyy&@@@  ",
"..@@@@f;oo@&&O:gggggggdfagggggafafgggffagaffsdfdafsayfdaffayayfffayfpypiaypyyyyyyyyyyyyyyyyaf6yyyf6ytyyyqtyyyyqi;oO&&@o;3yfO@@  ",
". @@@@f:ooo&&&O;ssgfgsgggaafffaggfaaggfgffasfafdfddfysfyyafyafyaydfydpfyuyyyuyyyyyyyyyyyyyyyfyyfye6uyyy6yyyqyyi;oO&&&Oo&ywy@@@  ",
"  @@@@ff;ooO;&&O:ggsgafsffggagafafgffsasaffguffafaafyfayyfayayfaaasayuyyiyyyyyyyyyyyyyyyyyyy6yy6yyyyy6yp6yyqyy;oo&;&OO;y6yy@@@  ",
"  @@@@fff:ooO&&;O:fdgfafdgfagagfagffadagfgddssfaaaaaaaffaafffssyyfaauyyyyyyyyyyyyyyyyyyyyyyyyyytyyyyyyy6yyyy6;oO&&&Oo&6yp6yO@@  ",
"  @@@@ffff;ooO&&&O;gafggafgaffgafgagsgffssaffsyyaffafyyafyyayaafydsydyyiyyyyyyyyyyyyyyyyras6yqyy4ayyyyyyyyty&oO&;&Oo&yyqypy@@@  ",
"  @@@@ggffd:oXO;&@;fgfaagfagffagafffsfffafadyaffyffafaayyffdfuyyyysayyyyyyyyyyyyyyyyyyyyyyyytyyyyyyyyyyyyff6;X@&&Oo&yytqy6yO@@  ",
"  @@@@ggfggg;Xoo%;ffafgfgafgagafffadsfasadaffaaaaayyyyffaayyyyyyuyuyyyyyyyyyyyyyyyyyeyyyyytyqyyyyyyy6wyyy6yfy;o@Oo;f6ytyyyy@@@  ",
"  @@@@fssgsga:oX;fagagfgffaagagfafffasffsaaffyayfyafafyafyfyayyyyyyyyyyyyyyyyyyyeyyyqywyy6yyyqy66py6ppqy5yy66y&oO&aqyqqp6tt@@@  ",
"  @@@@ggdffgaf:;agaffgaaaggfffgasfsafadaffaaayfffayfayfdaaauyayyyyyyyyyyyyyyyyyyuyyyuywyyyqtyyyyyyyyqyyt6yqyqyf@;y6yy6y6ytyO@@  ",
"  @@@@fgggfaagffgfagfagfgaafaagdffdfsyafaafyafyayyafaspapyyyyyyyyyyyyyyyyyyyyyeyywywyyyq6yyyysyy6ytyyyytfy6a6yyyyy6yytyytqy@@@  ",
"  @@@@fsfafgfgaggafgfgafffgffagddaddffasafayayfaafayyffysfiyyyyyyyyyyyyyyyyyyyyyyyyyytyyyyyyy6yyyy6yqy6p6fa0yqyw6yyqqwy6yyt@@@  ",
"  @@@@gaafsgfagaffaaaaggagsggafadfyfuafyaaffffyyyffyddsdyayyyyyyyyyyyyyyyyyyyyyyyyyyyqyq6pyyy66fyqyyyq6yyyy6yyyqpywyyy6y6t6@@@  ",
"  @@@@fgggafgaffaggfgffagaafaafadfdayfayfyyayaafasdaspauyyyyyyyyyyyyyyyyyyyyeyyy6yqyyyyyyyyyyyutqyttp6pwy6yy6yqi6ywtwqy6qty@@@  ",
"  @@@@fagfaagfagaffffdfsfafaddfafaaafyafayyfyyayfydddiiayyyyyyyyyyyyyyyyty6fyqy6yyyy6pyyyytyyywpyeytty6yyytqy6ywtttqyqtqy66@@@. ",
"  @@@@fgafgfgafgggagffdafssffsfsayfyfayfffaysfsfdadiuayyyyyyyyyyyyyyyyyyyyyyyyyyyyyyyyy6yyqtyqy6yyy6yqty6ytytywytqty6tqtqyy@@@  ",
"  @@@@agagfgffaafagdagffsdasdfaaafyfyyaayafyfyadaayyyyyyyyyyyyyyeyyyyyypyyywyqyyyy6pyyy66yyyyyy6y6yyyytyywwyyyy6qyy6y66yqy6@@@  ",
"  @@@@affgaaaggfgsadgsdfaffssaafyfaaaffyyfyyfasyayyyyyyyyyyyyyyyuyyytyy6yqyyyyqty6yyyyyypyyqttyy6pyqq6yqy6yyqq,ywyqtqyy6tqyO@@  ",
"  @@@@gfagffafdagsfffsdsayyfffaaafyyfaayaippdiyduyyyyyyyyyyyyyyyyyyyyyyyyeyyyyyyyyyywyyy6yy6yyyqyya3yyttiqy6yqtywtqyttqyqyt@@@  ",
"  @@@@gafgaggggffafdasfaffaaaaafyfafyyffydsdyyaiyuyyyyyyyyyyyyyyyyypywyyyyyyp6tyyty,yyeyyyqyyttty6yy6yyty66ywtq66yy<t6u4qqt@@@  ",
"  @@@@fafagssgdfffdaafyfyafyayafyafaadpuayapayuyyyyyyyyyyyyyyyryyyy6y6yyyyyyyyyytyyywf6s66yt6qyywy6fyqqqfy6yqy6yqt6yyyy6qt6@@@  ",
"  @@@@fggafgaffsaadfyfdayfayffayfayayfdiayyfyyyiyyyyyyyyyyyyyyyyyyyyyyyyqy6yy6tyyqyyy6f0yyytyy6yp6yqqyqt66f6y6y6yqtq6y6yqqy@@@  ",
"  @@@@ffagffsddfsfuaafyaffyayaffyyadiayfyayayyyyyyyyyyyyryyyyyqyyyyyqyqyppywyywyyr6y6yp6yq6yy6yy6pyqy6yy6ytqtqqy6y6yy4ytquy@@@  ",
"  @@@@sfafdfsgdsifafayfayayffyyaafpsuyduyyyyyyyyyyyyyyyyiyyyyyyy6p6yyyyyy6yyyeyyyyyyyqyp6yyqyyw6yyy66yywy6qt6ytqy6qtqtw6q66@@@  ",
"  @@@@sfdafdfdgaiafaffyyyfaffypsaauuyydyyyyyyyyyyyyyyyyyyyyyqyqyyyyyyyey6yyyqyyw6y6pyyy6yytyqyyy6u4yi63w6yqty6yt6ytqy,qt6tq@@@  ",
"      gfgfaadsfdfayyyaafadayayfudyfifiuyyyyyyyyyyyyyyyyyyyp6yyyyyyyyy6yyyyyyy6ryyyp6ywwytttyy63yttyqqp6yyqtq6ytqyqy6y6qtu6      ",
"      asafafffaayafffaayfyyapfdadyiidyyyyyyyyyyyryyyyywyyyyyyyytyyqywyyyyyeyf6fyyywryqyyy6yt6efyyqtyt6y6y6ytqqyq6ytqq6q6qt      ",
"      afafasadaffayayyffdafpyypdyyayiyyyyyyyyyyyyyyyeyyyyyy6ytyytyyyyy5yryf66y4y,yqip66yqyyqf66y6tq6qy6y6y6yqy6ty6t66yt66t .    ",
"   O@ afdffyaaaffyayafasffyiiayuayayyyyyyyyyyyyyyyyyyyyy6yqyyyyyyy6yyw6yyyy0ywf66yy66pyy6fyy6ytyyq6yqtyttqy6y6y66q6yttqytq OO   ",
"   @O ddaaaaffaaayffayyfyaasfyayiyyyyyyyyyyyyyyyyyyeyyeypyyyqy6yytyyyyiywy6dyy3yyqyyywy4f6y,ytq6qty6yqtqqtwy6y6ytqy6q6q66q @O   ",
"  .OO aifyafyyafyaffyyadyuyuyaayyyyyyyyyyyyyyyyyywyryyriyyyyyfywqyfyyyqywywyyt,yyyf4ayyqqy6y6t6yt6y66tty66f3tqq6qt6qp6y6y6 O@   ",
" ..@O fffayfafayfayafaayusauyyyyyyyyyyyyyyyyryyyyfyy6yyyqp6yy6yyyq6i3yyqyqy6ytyyyw6fy6y6y6yqqty6qy6yywu4qewyt6qq66uq6t66qt @O   ",
"  .O@.yayyaafafyfyyfyfyayyyuyyyyyyyyyyyyyyyyyyyyy66yfy3yyyyyqywyyyywqy6fyyytqyyy6,y6tty66yqtyqqyqtyt6y3fqt6yqqqttt6ttqyw6q O@   ",
"  .OO faaffyyyfaddydaayyyyyyyyyyyyyyyyyyyyyyyyp6yyfyyyay6yyqytyyey6iya3y6yqty6qqyy6fu6yyyqtq6ytqyqtqy6y66qt6tt666qqtt66qtw OO   ",
"   O@.fyayyfaafyyyyydusyyyyyyyyyyyyyyyyyyyyyyywyyyypyyyyyywyy3ayywp66ywyyqyya44y6y6yytqyy6ytt6y66yqtqtywp6tqq66yt6u6tqqqqt O@   ",
"  .@O.afffaafyfafpaiiyyyyyyyyyyyyyyyyyyyyf6yyywyyyy6ywyeyy6yyfyq6yypyyp6y66yyyyfywyq4ty66y6ytyqaq6tt4q6qqt6q6yqqqqqt6q6qqt @O   ",
" . OO.yfyafyfsyauuayuyyyyyyyyyyyyyyryywyy0qyqyyyyyyr6yiiyyf0f6ywpty6y66pqyywwyt66yyty6qqtqy6u4u4yqq6uq6t6tqtttttqt6ttqtq6q O@   ",
" ..OO aayfiyyadyyyyyyyyyyyyyyyyyyyyyyyyyysyyyyf66yyyyy6yyryd6ywy6uwyyyqyiy6y,yp6wy6y6yqtqtqy6yqt6y6y6ty6y66tq6q666y6t666q6 @O   ",
"  .O@.fayypyyusyayyuyyyyyyyyyyyyyyy0dyyryyw6ppyyyyeyyyyyy6ptty,yfyqyy6py6yeyqtu66y6tqttqy6y6y6y6tt6qy6t66q6q6q2tttq6qq6t2t @O   ",
"  .OO.ddfpfyyuuiuyyyyyyyyyyyyyseyyyyyyyyyyyyqy6yyryyy6yqwytuyqyy6yy6yy6yttqyy6yyyqyqyqqt6ytyqw6yq6yq6qqquqtttqtt6t6q6qq6q6 O@   ",
"   @O pspipuiyysyyyyyyyyyyyyyyyyyyyfyyyyyyyyy6yyyy6qp66yyyy64qyy6yyttqtqttt6qt4yqty66y6qqtqtqq6qq66ttqtt6t6ttqq66ty66t6q6q @O   ",
"   OO sppiyyiyyyyyyyyyyyyyryyyyyeyy66wyyyy6yyyyyyypy6yyy6yyyyy6yyqyty6yytqqytwy6tqtyy6ytwwqqtqttqtqtt66q6qqqq6qqt6w6q2t6t2 O@   ",
"  .@@.fdiyyyyyyyyyyyyyyyyyyyyyytyqtyp6yyy6fdeywpyyyyytyt6p6q6yy6yqywty6yqtqtqy6yy6p6tqqtryu6tq6tq6tq6tqqt6qqtqqt6q6t6q6t6t @O   ",
"  .OO.syyyyyyyyyyyyyyyyyyyyyttyyyyyypyyyyyy0yyy6qy6tytytywpyyqyyywy6y6ywyqtyy6y6ww6yqqtqy,4tqqqt6yt6y66ttqu66t26t6q2t6q2q6 O@   ",
"  .OO piyyyyyyyyyyyyyyyywyyyyyyyy6yyypyy0syyryyyyqyyyqqyyy6yyyyeyy6uwy6y6yy6yqtq6yrrtqtt3qt6q6tt6qtqtqqtq666t6t66t6t2t6t6t @O   ",
"  .@O pyyyyyyyyyyyyyyyyyyyyyqyyyyyy6y6yyyf6rywyyqy6yqyy6y3fy,yeq6y6utqy6y66y6tqtyrr3f66yrt4y6yq6tqt66y66qqqt6q2qq6q6q6q6q2 O@   ",
"   O@.yyyyyyyyywyyyyytyyuyyt6pyyyyyyy6pyyyytwywyyyqyyyqyyyqyy6yyp6tqqty6qtqtqy6yy6tqt6q66yqtttqttqttqq2tt6q6q6t6q6q26t6q6t.OO.  ",
"  .OO.yyyyyyyyyyyyyyyyyttyyyyyy6yyp6yyy6ytyqyqy66yy66yy6tty6wpwewyqtty6ytqtqy6t66tqt6yttt6q6q6q6t66q6t2q6t6t6t6q6t6tt6q6q2.@@.  ",
"  .OO.yyyyyyyyyyyyyyyq6ytytyyyy6yyyyyyyyyyeyqyyt6pyyyqtp6yqyy6tw6y6yqyy6qy6yqtqyqqy6t6t6q6tq6ttqq6tqt6q6q6q2q6q2t2t64qq626 OO   ",
" ..@O yyyyyyyyyyyyyyyypyyytyyyyyqyy6yy6yyy6yyy6yp6ywqyttyyqqqttyywy6y6qty6y6tqt6qt6qtqqqttt6qqt66y6q66qq6t6t6t6t6q2q6622w6 OO   ",
"  .OO.yyyyyyyyyyyyyy0syyyqyyqyyyyyyyy66p6py6p66yyq6yyyy6y6tqtqy66ywty6yqqtyqq6y66tqtqqqtqqq6ttqqt<6qt6t6q6t6t2t6q6q26t6tw6.@@...",
"  .@O.yyyyyyyyyyf6yfyyyyyyyqyywy6yeyyyp6yywyypyq6yypywwyqyqt6y4uy6tq6ytqtt6ttqqty66t6t666t6y4q4tqt6t2q6q2t6q6q2q6t6q2t6226.OO.  ",
"   O@.fyyyyyyyyyy0s66yyyyyyyqfyrpyyewyyy,6fyqyypywy63f6y6y6yyqyt6yqyy6yqqq6tqtqqqqtty66yy6tqttt66qq6q6t2q6q2q6t6t66t66q666.OO   ",
"   OO.yyyyyyyryyyyyyfy3aqyqyy6yyyqryy6ywyy3yy6y6yy6py6y6f6y66y6ty6y66y6tqqy6q6y6t6q6qtqt6wq666qqt62t6t6q6t6q6t2q6q6<w6222t.@O   ",
"   @O yyyyyyyyyyytyyyyypyyyyyyiiyyqyy6yyyyyqyqytyryq6yqtyqtqtty6wtqyqtqy6ttq6q6tu6tttq6t66tq6qqt6t6t2t6qq6q2t666tt26q26266 O@   ",
"   OO yy6yyy6yy6yyyyqtytyyy6ty66t6yyyyt6ya4u6yqyyy6yyqtq6tqtt6yytqy6qtq66tt6ttqq6qq6t6qttq66t666t2q6q6t62t6q6qq<<2q6626t2q @O   ",
"   @O.iyiiyyfyyyqyy6yyy6y,yytyyyyqy6qyqy,y6tyy6t6ytq6yyty66yquy6er6w6ty6t6yqt66ytqt6q6t<t6t62q6t6t2t6q2qq62t22qtq226t2q662 O@   ",
"   O@ wyyyu3yyp6yyyyqyyyyyqtyqyy6ytyy6uq6yyywqyyy6qttw6y6yy6y46yewwwtt6qqq6ttqt66qqqq6qtqt6qt6q6q6q6t6t66q666q2622t666266t @O   ",
"   O@ yyrywyyyyy6yyypy6ywfyw6py6yy6y6yypfy6ytyq66y6ytqy6ytqtqtqqwwq6u6tqt6t6qqq6qq6qt6q22q6q6t2qq6q226t6t<22626666t226t2q6 O@   ",
"   @O yyyyyyyyyyyyytp6pyy66yp6qyyqtyyy6t3yf6qtqyywy6qt6ytqy6t6y6y6ttqt6qtqqq6t6yqt6tqt6tq6t6q2t66q6qq62q626tq2t22q662q2622 @O   ",
"   OO yyyywyy6yyyryqwyqyqyptwy4uyqty4ytyy6ry6y6ytt6ytq6yqtt6qyt663w66tqtq6ttt6qq<6qt6qq66q6q6q6qt6q2q6q26t66266q6262626262 O@   ",
"   @o yyy6yypp6wyywyyyyqyy4uyyyt6ytqyqy,yut6y6yqqt6yy6y6yy6yqqtqywy6y66tqt6qqtt6tt66q66tt6t2t6t2t6q662q662q2t6626t6q6t6q26 @O   ",
"   @O yyy6yyeyyyy6pyefy34yy6yy6pyyy6yyqty6ytqtqtu46yqtqyy6t6f3ttt6qt6qy66yq6tt6t66t4t6q66q6qqtt62t2t<t2q2q266q2t2t6t1w2w26 @O   ",
"   O@ eyyyyyyyyyyy6py6yautqywyywyqqytqyq6y6ytqtw6yy6tqt66qqq6q6qqy66tt6qt6t6q6q6t62t6q2tt6t22662666<t62666t622662666262662 O@   ",
"   @O yyyq0ywy6yqyy6yywy6piry6py6y6tyq6ytqtyqy6yyttyt6q6tq6qy66t6t6ytq6qqwww6t6t6q2tt6t66q6t6t6wq2q6t2q666226t666t66662626.@O   ",
"   OO qyyysfyryyyqwy,yy6ywyy6pyqytyw6tqqqtq6y6y66ttqty6yt6ut6yp6qtqqq6tt6w6wq6q6t6q62q6qt6w6q62w2q666622t2q662q26222626662.@@   ",
"  .@@.yyfyy6qpypp6ywyf3yyy,3qtyty66wytqyqy6yyqtqwyqtqy6ttqq6t6t66q6y6tq62q2twt6t2q6qt6t626t22q2w66t226t226<66t2q62t<666622 @O   ",
"   OO.yy6fqyy6y6yp6yy6yyyayyyqqqtyyyqqy6tqy66tqtt6ttq6qt6q6uqqtqtqq6qt6q6qt666q2t6t62q6wq26qt6662q662q66q6t6222q2662622622 O@   ",
"   OO 6ff6y,6ywyqyyyypwyy36yy6qtqty6tq6yyqtqy6tq6ty66y6tttt6q6tqt66yt6qqq66q2t6t6q6q6tw6626q262t6262626226t666666226262622 @O   ",
"  .@O.0y6yyyyyyyy66yq6p6f6yy6yy6tqqtqty66yqtttqqqt6qt6qq6qqqtt4tqt666w6q6tt6q6q6t4t4t22q6t62q6666t6q6t6q662262262626626262 O@   ",
"   O@ yyy66yy,yyqyqy4awwiey6qy6yqy6y6y6yqty4aq6ftq6q6yttqqq6tqqt6t6t6t6qt2q6q6t6q6t<ww2qw2666t26,y2q,y2w66666662q262262626.O@...",
"  .@O ywtpyqyyf6yqyqyyywqqyytqp6y6y6ywy6tqqt6wr3t6tqt66q6t6y6tt<q6q2q6t66q6t2t6qt6<t666262q262q6,666,666266262662226626262.OO. .",
" . OO yyyqyy6y3yqy6y,y6yy46tyty6yqtqww6yqy,ry36ytqqqqtqq6ytq6qqt6q6t6q6qt6t<q2q26266t6666q6666625q265q62w66662626262262626 OO   ",
" ..Oo yyqy4ypwyyuttqyw6f6uqt6y6y6tqty6y6qwy35wy66y6t6t6tt6q6t6q6t6t6t2t66q2t6t6tt<6q262q22t2q2t222q6222w226266262626626261 O@   ",
"  .O@.y6yyyq6y6tyy,f6yqtyttqtqtqy6y6y66yttttyp6tq6t6t6t26tq26t6t6q6q6t2q6q666tw6q26262666t2q6266662yw226626262626262626262.OO   ",
"  .OO qyya4ypytuyqw6y6yqtqy6qtqt6yqqtty6q6q6666qqttqqqtq6qqtt6q2t6t2q6t6t66t662q2q6q6q2t6266t<t6w2,,26662626262626262622<6.@@   ",
"   @O ya,yyeqqyqtt6yqyqtqy6yy6yqyqyttqqyq6tqqqttq6ttq66tq6t66t6t2q6t6q6q<t62622666q2t6666q6626t<6q126662626262626262622661.OO   ",
"   O@.y46yeyeyy6twy6p6tytqy66y6yqw6q6tq6qt6y6t6qqt66qtt66t6qq6q6t6q6t2t2t2tt6t2t2t62262q22t2q6662262262626262626262626621<.O@   ",
"   @O quf3qyyqqyqtqy6yy6yqyqtyqqy6t6ttt6q66y66tt6ttqq6qwt6t6t6t66t2q6tq26q26<6t66266t222626262t2262626262626266265<6643312.O@...",
"   O@ ytyyqu6y,ytqy6y66y6qqtq6wt6qtqq6qy6yqqtq6qwq6q6w6t6q2q6q2qq6t62t2qt2q6t6<66q2t626q6t6262226262626262626226<263,51,,,.OO.  ",
"   @O ttywrtwyy3yty6tqt6y6ttq66ttq6t6tq6tttt6yt6q66qt6t6q6t6q6t22t6666qtt626q2t6t626t<6662626t26262626262626262234152,32,, OO   ",
"      ut,yy6wa5y6y6yqtqytt6y6yy66qy6qqqtq6q6t6qtt6qq6q6q2t6q2t6qq2t6t<<642q66226262q66662t622662626262626262245621161,35,,  .   ",
"    ..ytwyqt6y<ytqtqqtqtqqewt6yqyq6t6y666q6w6tt6t6q2q2q6q6q6q6q626q6q22666q266q2666q26226262626626262626245662<1215<1,11,,  .   ",
"  @@@@6t66yqytqqy6qtyqtwqqy6wq6t6tqtqqtqttqqt6wq2t6t6t6t6t6q6t6qt62q66q62t622t662q6266q6t6622626626262626224152<254,3,,,,,,@@@  ",
"  @@@@wyf3qty6tq6yqt6ytqt66ytqt66y6t6t6qqqq6t666q6q2t6q6q6t2w22w2462666662626262226wq226222662622626262626<2<46<,,,3,,,,,,,@@@  ",
"  @@@@6y6yty6y6yy6ytw6qtqp666qtqt6qqqqtqt6qt2t6t6t6t6q2t6t6q6t666t6qq2t26q6t6q2t6w26266622622626626262626446,441,,,,,,,,,,,@@@  ",
"  @@@@qqytqtqyy6ttqtyq6qq66y66tttq6y6tq6t2t6t2q6q6t6q2q6q6qq6wt662226222,,6262266666266262626262266222626<21<13,<,,,,,,,,,,@@@  ",
"  @@@@tq6ytqy6qtqqt66qtq6yqqtq6qt6t6qqt66t2t6q6t2t6q6t4t6t6262666q6t6q6t5y6ww2w66622666626262626622626265,,34,,3,,,,,,,,,,,@@@  ",
"  @@@@qyy6tt6tqq6qqqtt6utttt6ttqqqqt6qqqt6t<t6t6q6q2q2w6q6w66262t266t266q266666262262662626262622622,1221,,,1,,,,,,,,,,,,,,@@@  ",
"  @@@Oy66yqwtty6ytt66qt6q6q6tt6qq6q6q66q2q6t6q2q6t6t6t2q6w226t6q662q6662622w266626626226262626266226662211<,,,,,,,,,,,,,,,,@@@  ",
"  @@@@yqy6yty6qq66q6tqqq6q6tqtq6tq6t6t2tq6t2q6t6q6t626q26q2t6266q6t266qqy56666w666266262626226214<<512<3,,,,,,,,,,,,,,,,,,,@@@  ",
" .@@@@yq4u6t6wwt6ptt6qt6tqttq66y6qq6t6q66t6q6t6q6t666t662266q2t226622q26,,226221626226262626636<624,<2,,,,,,,,,,,,,,,,,,,,,@@@  ",
"  @@@@6y6tqqtty6yp66uq6qtqq66w6tw26q6q6qq2q6q2q26t2qq6w26t66266q2tq266662t6626262626626262626226223,,,<,,,,,,,,,,,,,,,,,,,,@@@  ",
"  @@@Oy6yqqtt66q66tq6tttt6t6tqt6q6t2t6t66t6t6t6t626q2t6662q2t662666622q266626262626226262626526<<,1,3,,,,,,,,,,,,,,,,,,,,,,@@@  ",
"  @@@@y6tt6ttqqqt6qqt66qqq6qqtw66t2t6q2q6t2q<t6ttt2666t6q6t2t22t6q266262262626262662626224<<,52,5,,<,,,,,,,,,,,,,,1126,,,,4@@@. ",
"  @@@@6yqqqtt66tqy6tttwtt6tq662tq6q6t6t6q6q6t6t626q62q262666226662<t6662626262626226262662<61,511,,,,,,,,,,,,,,,,,,2,6;,,,<@@@  ",
"  @@@@6q6y6ttqqt6tq6q6q6w6t6t6q66t6q2t6q6t2q6q626626666222q26q2262662t6226262626262262624621<,34,,,,,,,,,,,,,,22,,62,,,,,,;@@@  ",
"  @@@Oyqt6qq6y<yqtqt6qqt6t2t2q6tq2t6q6q6t<q<q<6qt2t62t6q6t662q6tq26222666262626262622262431,,<,,,,,,,,,,,,,,,,22,,;,,,,,,,6O@@  ",
"  @@@@6tq66ttq6&&6y6t6q66qt6q6q66t2t6t6262q626t6226t2266q2666t262626262626262642626<6622,,,,,,,,,,,,,,,,,,,,,,6&&662,;,,,,,@@@  ",
"  @@@@qtttqtt6;oo&qt6w6tqq2q6t2tq6q6q6t26w662t26q662q62t66622262626262626262626622262222,,,,,,,,,,,,,,,,,,,,,,@oo@,1,,1,,,<@@@  ",
"  @@@@t6qqq6q&oO@o@y2q6t6tt6t6q66tw<6t2t6q6t66622t2q2t26q626266626262626262626226122,311,,,,,,,,,,,,,,,,,,,,,@O&Oo@6,,6;,;,O@@  ",
"  @@@@6y6t6y;oO&&@o%t6q6q26q2q6tt62t6<t666622q6t6666266226q6622662626262626262<<2663311,,,,,,,,,,,,,,,,,,,,,@o@&&oo&,22266<@@@  ",
"  @@@@qqqty&oO&;&Oo;t2q6q6t6q2q6t<622626626q26q6y6w22q626662262626266262626266<5<554<,,,3,,,,,,,,,,,3<,,,4,,&oO&&&Oo@6,,,;6O@@. ",
"  @@@@6tqt&oO&&&Oo-66q6t2t6q6t<t2t6t2tq6t2622t26,62666222666626262622626264523,<,5,2,<,,,,,,,,,,,,,,,>,,,,>,,&oO&&&Oo&,,266@@@  ",
"  @@@@t64&oO&;@OX;q6t6t6q6q26q2q662t26662q6t2666,522626w6262622626266262626425,<1,,1,,,,,,,,,,,,,,,,,,,,,,,>,,@oO;&;Oo&,222@@@  ",
"  @@@@6q;oO&;@OX;t6q6q2q6t6tq2t6t626t<t26662<t6q2qq6266226262662626226262622,1,,3,,,,,,,,,,,,,,,,,,,,,,,,,,,,,,@oO&&&Oo&;6;@@@  ",
"  @@@@qt&o@;@Oo;66t2q6t66q262q2626662t2q6t<66t266y,,262662622626262626621551<,5,,,,,,,,,,,,,,,,,,,,,,,,6,,,,,>,,&oO&&&o@;,2@@@  ",
"  @@@%q66&o@OX;t6t6q6t6tq2tq662qt6q2666622t6222q222166622626626262626222,,,,<,,3<,,,,,,,,,,,,,,,,,,,,,,;,,6;26,,,&oO@o@,6,2@@@  ",
"  @@%;:y6q&oX;q6q2q6q2q666662t6t262t6q22626222622626626262622662262626226,,,,1,,,,,,,,,,,,,,,,,,,,,,,,,>>,,,;6;,,,@oo@,,62;&@@  ",
"  @&&;&;t6t&;t6q6t6t6t66t22q666<q62662t6q2t<q266662626262626622662226222,,5,,,,,,,,,,,,,,,,,,,,,,,,,,,,,,,>,226,,,,@&,,,,&;&&@  ",
"  &;&;&;<6t6q6q66q6t66q222q2622626626q66w622w2622626262662626255222615,3,<,,3,,,443,,,4,,,,,66,,,,,,,,,;,,,,>,,,;2;,;,26;&;&;@..",
"  .&;&;&&26t2tt6q6q2tt2tt6666t2qw6t22                   ..     .   .       .              ,,,6;,,,,,,,,6,,>,>,,,626,6,2;&&;&@.  ",
"   o&;&;-%:qq6t266t<266626t<2t6666w62                   .... ...  ..  .. .....       ...  62,,,,;6,<,6,,<,,,,,,<62,,62;;;&;&.   ",
"    o&;&-@@@@@@@@@@@@@@@@@@@@@@@@@@@@  @OO@O@OO@@O@OO@O@O@OOOOO@OOO@OO@OOOO@O@OOO@O@OOO@  @@@O@@@@O@@@@O@@O@O@O@@O@@@O&;&;&..   ",
"     o&;%@@@@@@@@@@@@@@@@@@@@@@@@@@@@ .OOO@O@O@OO@O@@O@OOO@O@OOO@OO@OO@O@OOOOO@O@O@OO@OO  @@@@@@@@@@@@@@@@@@@@@@@@@@@@@&&@.     ",
"      O%@@@@@@@@@@@@@@@@@@@@@@@@@@@@@ . ....              ..... ....  ..... ....    .     @@@@@@@@@@@@@@@@@@@@@@@@@@@@@@&o.     ",
"                                          ..                .           .     ..                                        ..      ",
"                                                                                                                       ...      "
};
